<svg xmlns="http://www.w3.org/2000/svg" viewBox="0 0 50.65 28.05"><defs><style>.cls-1{fill:#0089f5;}</style></defs><g id="Layer_2" data-name="Layer 2"><g id="Layer_1-2" data-name="Layer 1"><path class="cls-1" d="M27.44,14.26c-1.13,1-2.3,2-3.38,3.09-3.44,3.39-6.84,6.81-10.27,10.2a1.43,1.43,0,0,1-.87.47c-4.21,0-8.41,0-12.62,0,0-.09-.08-.17-.11-.25L14,14,0,0H7.81c1.63,0,3.26,0,4.89,0a1.59,1.59,0,0,1,1,.39Q20.37,7.06,27,13.71C27.08,13.8,27.15,13.91,27.44,14.26Z"/><path class="cls-1" d="M50.65,13.93c-1.47,1.48-2.8,2.85-4.15,4.19Q41.75,22.86,37,27.59a1.33,1.33,0,0,1-.78.43c-4.22,0-8.44,0-12.78,0L37.3,14.18,23.36.31l.12-.26c.33,0,.66,0,1,0C28.24,0,32,0,35.79.05A1.9,1.9,0,0,1,37,.54c3.35,3.3,6.66,6.63,10,9.94C48.17,11.63,49.38,12.72,50.65,13.93Z"/></g></g></svg>